<?xml version="1.0" encoding="UTF-8" standalone="no"?>
<!-- Created with Inkscape (http://www.inkscape.org/) -->

<svg
   width="34.395832mm"
   height="34.395836mm"
   viewBox="0 0 34.395832 34.395836"
   version="1.1"
   id="svg1"
   xml:space="preserve"
   xmlns:xlink="http://www.w3.org/1999/xlink"
   xmlns="http://www.w3.org/2000/svg"
   xmlns:svg="http://www.w3.org/2000/svg"><defs
     id="defs1"><linearGradient
       id="paint0_linear_2_2"
       x1="61"
       y1="130"
       x2="61"
       y2="-91.5"
       gradientUnits="userSpaceOnUse"
       gradientTransform="matrix(0.26458333,0,0,0.26458333,-352.55094,1033.5101)"><stop
         offset="0.0755157"
         stop-color="#563ACC"
         id="stop4-3" /><stop
         offset="0.520094"
         stop-color="#6364FF"
         id="stop5-9" /></linearGradient><linearGradient
       xlink:href="#paint0_linear_2_2"
       id="linearGradient9"
       gradientUnits="userSpaceOnUse"
       gradientTransform="matrix(0.26458333,0,0,0.26458333,-309.14634,1033.5101)"
       x1="61"
       y1="130"
       x2="61"
       y2="-91.5" /></defs><g
     id="layer1"
     transform="translate(310.33698,-1033.5101)"><g
       id="g35"><rect
         width="34.395832"
         height="34.395832"
         fill="url(#paint0_linear_2_2)"
         x="-310.33698"
         id="rect9"
         y="1033.5101"
         style="fill:url(#linearGradient9);stroke-width:0.264583" /><g
         id="g22-1"
         transform="matrix(2.7008826,0,0,2.7008826,-420.2026,605.73374)"
         style="fill:#ffffff;fill-opacity:1"><g
           style="fill:#ffffff;fill-opacity:1"
           id="g21-7"
           transform="matrix(-0.02098475,0.00149867,0.00186683,0.02613998,50.829826,159.41966)"><path
             id="path21-23"
             style="fill:#ffffff;fill-opacity:1"
             d="m 184.32558,44.669616 a 148.3498,184.79423 89.999943 0 1 197.48256,137.400904 148.3498,184.79423 89.999943 0 1 -171.1539,158.55551 148.3498,184.79423 89.999943 0 1 -73.79082,-7.88786 c -37.413268,14.08225 -67.295846,16.632 -83.897725,16.632 -7.597984,0 -11.890348,-0.55031 -12.068348,-0.57331 -1.962996,-0.258 -3.573822,-1.63902 -4.13182,-3.53902 -0.558,-1.901 0.06563,-3.95249 1.578624,-5.23047 18.567483,-15.67321 27.561182,-29.74723 31.946032,-39.78825 A 148.3498,184.79423 89.999943 0 1 13.169927,203.20546 148.3498,184.79423 89.999943 0 1 184.32558,44.669616 Z m 4.83465,50.193373 A 97.273478,121.17022 89.999943 0 0 76.929626,198.8185 97.273478,121.17022 89.999943 0 0 206.42337,288.91536 97.273478,121.17022 89.999943 0 0 318.65398,184.95984 97.273478,121.17022 89.999943 0 0 189.16023,94.862989 Z" /></g></g></g></g></svg>
