<?xml version="1.0" encoding="UTF-8" standalone="no"?>
<!-- Created with Inkscape (http://www.inkscape.org/) -->

<svg
   width="18.784996mm"
   height="18.786322mm"
   viewBox="0 0 18.784996 18.786322"
   version="1.1"
   id="svg1"
   xml:space="preserve"
   xmlns="http://www.w3.org/2000/svg"
   xmlns:svg="http://www.w3.org/2000/svg"><defs
     id="defs1" /><g
     id="layer1"
     transform="translate(305.18375,-1155.6121)"><path
       id="path14"
       style="fill:#000000;fill-opacity:1;stroke-width:0.236672"
       d="m -295.79126,1155.6121 a 9.3926669,9.3926669 0 0 0 -9.3925,9.3925 9.3926669,9.3926669 0 0 0 9.3925,9.3939 9.3926669,9.3926669 0 0 0 3.70541,-0.7655 c 1.96031,0.7539 3.48684,0.8066 4.32853,0.7466 0.3852,-0.028 0.60032,-0.077 0.60925,-0.08 0.0984,-0.024 0.17396,-0.1163 0.19368,-0.2385 0.0197,-0.1221 -0.0211,-0.2494 -0.10355,-0.3245 -1.01203,-0.9227 -1.53149,-1.7785 -1.79907,-2.3968 a 9.3926669,9.3926669 0 0 0 2.45825,-6.3352 9.3926669,9.3926669 0 0 0 -9.3925,-9.3925 z m -0.0185,3.1877 a 6.1588045,6.1588048 85.810999 0 1 6.15858,6.1587 6.1588045,6.1588048 85.810999 0 1 -6.15858,6.1589 6.1588045,6.1588048 85.810999 0 1 -6.15904,-6.1589 6.1588045,6.1588048 85.810999 0 1 6.15904,-6.1587 z" /></g></svg>
