<svg width="199.85" height="66" version="1.1" viewBox="0 0 199.85 66" xmlns="http://www.w3.org/2000/svg" xmlns:xlink="http://www.w3.org/1999/xlink">
 <symbol id="logo-symbol-wordmark"><defs>
  <linearGradient id="linearGradient29" x1="61" x2="61" y1="130" y2="-91.5" gradientTransform="matrix(.21666 0 0 .21666 -4.5096 -5.4838)" gradientUnits="userSpaceOnUse">
   <stop stop-color="#563ACC" offset=".075516"/>
   <stop stop-color="#6364FF" offset=".52009"/>
  </linearGradient>
  <linearGradient id="linearGradient3" x1="61" x2="61" y1="130" y2="-91.5" gradientTransform="matrix(.83147 0 0 .83147 -17.306 -21.045)" gradientUnits="userSpaceOnUse" xlink:href="#linearGradient29"/>
 </defs>
 <g fill="url(#linearGradient3)" stroke-width="3.8377">
  <path d="m32.997 0a32.998 32.998 0 0 0-32.997 32.998 32.998 32.998 0 0 0 32.997 33.002 32.998 32.998 0 0 0 13.018-2.6894c6.8871 2.6484 12.25 2.8337 15.207 2.623 1.3532-0.09978 2.109-0.27247 2.1404-0.28015 0.34577-0.08059 0.61115-0.40833 0.68042-0.83776 0.06946-0.42905-0.07407-0.87614-0.36381-1.1402-3.5554-3.2417-5.3804-6.2481-6.3206-8.4206a32.998 32.998 0 0 0 8.6363-22.256 32.998 32.998 0 0 0-32.997-32.997zm-0.06524 11.199a21.637 21.637 0 0 1 21.636 21.636 21.637 21.637 0 0 1-21.636 21.637 21.637 21.637 0 0 1-21.638-21.637 21.637 21.637 0 0 1 21.638-21.636z"/>
  <path d="m108.03 28.726c0 2.6326-0.24445 5.0745-0.73333 7.3265-0.47407 2.2343-1.2296 4.2088-2.2666 5.9234-1.0222 1.6974-2.363 3.0828-4.0222 4.1569l7.9332 10.678h-10.933l-5.4667-8.5215h-0.31085c-2.7259 0-5.0887-0.45898-7.0889-1.377-1.9852-0.93562-3.6222-2.2604-4.911-3.975-1.2889-1.7323-2.2445-3.802-2.8667-6.2093-0.6222-2.4077-0.93328-5.0922-0.93328-8.0541 0-3.9489 0.5555-7.3783 1.6666-10.288 1.1259-2.9274 2.8592-5.1877 5.2-6.7811 2.3407-1.6107 5.3332-2.4162 8.9778-2.4162 3.7036 0 6.7109 0.80552 9.0219 2.4162 2.3259 1.6107 4.0295 3.8799 5.111 6.8068 1.0815 2.9274 1.6222 6.3651 1.6222 10.314zm-22.355 0c0 2.2861 0.2222 4.2521 0.66664 5.8973 0.44444 1.6456 1.1481 2.9097 2.1111 3.7931 0.96298 0.88343 2.2222 1.3251 3.7777 1.3251 1.6148 0 2.8962-0.44171 3.8446-1.3251 0.96298-0.88343 1.6518-2.1476 2.0666-3.7931 0.42966-1.6452 0.6445-3.6112 0.6445-5.8973 0-3.4297-0.48892-6.1402-1.4667-8.132-0.97772-1.9917-2.6592-2.9876-5.0442-2.9876-1.5851 0-2.8666 0.45016-3.8446 1.3509-0.96294 0.9007-1.6666 2.1825-2.1111 3.8449-0.42962 1.6629-0.64442 3.6373-0.64442 5.9238zm28.222 19.044v-37.984h8.7775v29.696h12.511v8.2878zm54.111-37.984v22.863c0 3.1868-0.5185 5.9583-1.5555 8.3139-1.037 2.3379-2.5926 4.1481-4.6666 5.4299-2.074 1.2641-4.6739 1.8966-7.8 1.8966-4.4739 0-7.8887-1.3424-10.244-4.0272-2.3555-2.6844-3.5333-6.4776-3.5333-11.379v-23.097h8.822v22.291c0 2.6844 0.42963 4.6332 1.2889 5.8455 0.85921 1.2123 2.1258 1.8187 3.7999 1.8187 1.2 0 2.1778-0.26096 2.9333-0.77943 0.75556-0.53689 1.3037-1.377 1.6444-2.5202 0.35537-1.1432 0.53336-2.6154 0.53336-4.4168v-22.239zm6.8222 0h11.333c4.6961 0 8.0441 0.81397 10.044 2.4423 2 1.6279 2.9999 3.9662 2.9999 7.0149 0 1.6625-0.25943 3.0743-0.77778 4.2345-0.50366 1.1605-1.1481 2.0785-1.9333 2.7539-0.77037 0.67581-1.563 1.1348-2.3778 1.3773v0.26096c0.88887 0.26096 1.7704 0.6927 2.6444 1.299 0.88888 0.5887 1.6222 1.4806 2.2 2.6756 0.59258 1.1778 0.88888 2.78 0.88888 4.8067 0 2.3034-0.50369 4.2867-1.5111 5.9495-0.99258 1.6625-2.4148 2.9442-4.2667 3.8449-1.8519 0.88343-4.0518 1.3251-6.6 1.3251h-12.644zm8.7775 14.575h2.6444c1.4518 0 2.474-0.34539 3.0666-1.0392 0.59258-0.70997 0.88888-1.5673 0.88888-2.572 0-1.0392-0.34078-1.8271-1.0222-2.364-0.66667-0.55454-1.7037-0.83162-3.1111-0.83162h-2.4666zm0 7.5084v7.9762h3.0888c1.5259 0 2.5926-0.37993 3.2-1.1432 0.60743-0.77943 0.91114-1.7496 0.91114-2.9097 0-0.67581-0.13355-1.3079-0.4-1.8966-0.25175-0.60635-0.68886-1.0914-1.3111-1.4552-0.62223-0.37993-1.4815-0.57143-2.5778-0.57143z"/>
 </g>
 </symbol><use xlink:href="#logo-symbol-wordmark"/>
</svg>